<svg height="512" viewBox="0 0 64 64" width="512" xmlns="http://www.w3.org/2000/svg"><g id="Icons"><path d="m58.75 41.67-5 8.66c-.28.48-.89.64-1.37.37l-1.77-1.03-.84-.48c-.38-.22-.86-.16-1.19.15-2.74 2.63-6.11 4.61-9.85 5.7-.43.13-.73.51-.73.96v3c0 .55-.45 1-1 1h-10c-.55 0-1-.45-1-1v-3c0-.45-.3-.83-.73-.96-3.74-1.09-7.11-3.07-9.85-5.7-.33-.31-.81-.37-1.19-.15l-.84.48-1.77 1.03c-.48.27-1.09.11-1.37-.37l-5-8.66c-.27-.48-.11-1.09.37-1.37l2.6-1.5c.39-.22.57-.67.47-1.11-.95-3.86-.89-7.76 0-11.38.1-.44-.08-.89-.47-1.11l-2.6-1.5c-.48-.28-.64-.89-.37-1.37l5-8.66c.28-.48.89-.64 1.37-.37l2.61 1.51c.38.22.86.16 1.19-.15 2.74-2.63 6.11-4.61 9.85-5.7.43-.13.73-.51.73-.96v-3c0-.55.45-1 1-1h10c.55 0 1 .45 1 1v3c0 .45.3.83.73.96 3.74 1.09 7.11 3.07 9.85 5.7.33.31.81.37 1.19.15l2.61-1.51c.48-.27 1.09-.11 1.37.37l5 8.66c.27.48.11 1.09-.37 1.37l-2.6 1.5c-.39.22-.57.67-.47 1.11.95 3.86.89 7.76 0 11.38-.1.44.08.89.47 1.11l2.6 1.5c.48.28.64.89.37 1.37z" fill="#0a5078"/><g><path d="m32 14c-10.48 0-19 8.52-19 19 0 10.54 8.589 19 19 19 10.433 0 19-8.48 19-19 0-10.48-8.52-19-19-19z" fill="#00325a"/></g><g><path d="m32 13c-10.48 0-19 8.52-19 19 0 10.54 8.589 19 19 19 10.433 0 19-8.48 19-19 0-10.48-8.52-19-19-19z" fill="#fab400"/></g><circle cx="32" cy="32" fill="#f0f0f0" r="17"/><path d="m42 33c-.713 0-1.389.216-1.984.574.604-1.318.984-2.553.984-3.574 0-4.97-4.03-9-9-9s-9 4.03-9 9c0 1.02.379 2.253.982 3.568-.587-.351-1.257-.568-1.982-.568-2.21 0-4 1.87-4 4.17 0 1.68 2.13 4.24 3.28 5.5.39.44 1.05.44 1.44 0 1.13-1.24 3.28-3.81 3.28-5.5 0-.004-.001-.007-.001-.011 1.857 2.883 4.096 5.621 5.244 6.969.399.468 1.116.468 1.514 0 1.148-1.348 3.387-4.086 5.244-6.969 0 .004-.001.007-.001.011 0 1.69 2.14 4.25 3.28 5.5.39.44 1.05.44 1.44 0 1.12-1.23 3.28-3.8 3.28-5.5 0-2.33-1.82-4.17-4-4.17zm-20 6c-1.1 0-2-.9-2-2s.9-2 2-2 2 .9 2 2-.9 2-2 2zm10-4c-2.76 0-5-2.24-5-5s2.24-5 5-5 5 2.24 5 5-2.24 5-5 5zm10 4c-1.1 0-2-.9-2-2s.9-2 2-2 2 .9 2 2-.9 2-2 2z" fill="#d2d2d2"/><g><path d="m22 32c-2.21 0-4 1.87-4 4.17 0 1.68 2.13 4.24 3.28 5.5.39.44 1.05.44 1.44 0 1.13-1.24 3.28-3.81 3.28-5.5 0-2.3-1.79-4.17-4-4.17zm0 6c-1.1 0-2-.9-2-2s.9-2 2-2 2 .9 2 2-.9 2-2 2z" fill="#00a0c8"/></g><g><path d="m42 32c-2.13 0-4 1.8-4 4.17 0 1.69 2.14 4.25 3.28 5.5.39.44 1.05.44 1.44 0 1.12-1.23 3.28-3.8 3.28-5.5 0-2.33-1.82-4.17-4-4.17zm0 6c-1.1 0-2-.9-2-2s.9-2 2-2 2 .9 2 2-.9 2-2 2z" fill="#00a0c8"/></g><path d="m49 32c0 .17 0 .34-.01.5-.26-9.14-7.79-16.5-16.99-16.5s-16.73 7.36-16.99 16.5c-.01-.16-.01-.33-.01-.5 0-9.37 7.63-17 17-17s17 7.63 17 17z" fill="#d2d2d2"/><path d="m38 36.17c0 .25.05.51.13.79 1.01-1.58 1.89-3.21 2.4-4.66-1.49.61-2.53 2.11-2.53 3.87zm-14.53-3.88c.5 1.45 1.38 3.08 2.4 4.66.09-.27.13-.54.13-.78 0-1.78-1.06-3.27-2.53-3.88z" fill="#0082aa"/><g><path d="m30.293 32.354-1.293-1.293c-.39-.39-.39-1.024 0-1.414.39-.39 1.024-.39 1.414 0l.586.585 2.586-2.586c.39-.39 1.024-.39 1.414 0 .39.39.39 1.024 0 1.414l-3.293 3.293c-.39.391-1.024.391-1.414.001z" fill="#d2d2d2"/></g><path d="m32 20c-4.97 0-9 4.03-9 9 0 4.083 6.075 11.582 8.243 14.128.399.468 1.116.468 1.514 0 2.168-2.546 8.243-10.045 8.243-14.128 0-4.97-4.03-9-9-9zm0 14c-2.76 0-5-2.24-5-5s2.24-5 5-5 5 2.24 5 5-2.24 5-5 5z" fill="#c80a50"/><g><path d="m30.293 31.354-1.293-1.293c-.39-.39-.39-1.024 0-1.414.39-.39 1.024-.39 1.414 0l.586.585 2.586-2.586c.39-.39 1.024-.39 1.414 0 .39.39.39 1.024 0 1.414l-3.293 3.293c-.39.391-1.024.391-1.414.001z" fill="#0a5078"/></g></g></svg>